<?xml version="1.0" encoding="utf-8"?>
<!-- Generator: Adobe Illustrator 19.0.0, SVG Export Plug-In . SVG Version: 6.00 Build 0)  -->
<svg version="1.1" id="Layer_1" xmlns="http://www.w3.org/2000/svg" xmlns:xlink="http://www.w3.org/1999/xlink" x="0px" y="0px"
	 width="97.4px" height="89.2px" viewBox="-277 371.6 97.4 89.2" style="enable-background:new -277 371.6 97.4 89.2;"
	 xml:space="preserve">
<style type="text/css">
	.st0{fill:#654dc6;}
</style>
<title>film</title>
<path class="st0" d="M-180.7,400.5h-71.5l71-10c0.4,0,0.9-0.4,1.1-0.7c0.2-0.4,0.4-0.9,0.2-1.2v-0.2l-2.1-15.5
	c-0.2-0.7-0.9-1.4-1.8-1.2h-0.4l-91.4,13c-0.5,0-0.9,0.4-1.1,0.9c-0.2,0.4-0.2,0.9-0.2,1.2l2.1,15.5v0.2l0,0v56.9
	c0,1.1,0.7,1.8,1.8,1.8h92.3c0.4,0,0.9-0.2,1.1-0.4l0.2-0.2c0.4-0.4,0.4-0.7,0.5-1.1v-57.1C-178.9,401.4-179.6,400.5-180.7,400.5z
	 M-264.1,386.4l7.6,11.2l-15.3,2.1l-1.8-11.9L-264.1,386.4z M-225,404l-5.9,12.1h-11.2l5.9-12.1H-225z M-209.7,404l-5.9,12.1H-227
	l5.9-12.1H-209.7z M-271.3,416.1V404h15.7l-5.9,12.1H-271.3z M-246.2,416.1h-11.4l5.9-12.1h11.2L-246.2,416.1z M-271.3,419.7h88.8
	v37.9h-88.8V419.7z M-211.7,416.1l5.9-12.1h23.3v12.1H-211.7z M-237.1,394.8l-7.6-11.2l11.6-1.6l7.6,11.2L-237.1,394.8z
	 M-252.6,396.9l-7.6-11.2l11.4-1.6l7.6,11.2L-252.6,396.9z M-217.9,379.9l7.6,11.2l-11.4,1.6l-7.6-11.2L-217.9,379.9z M-185.3,375.2
	l1.8,11.9l-22.8,3.4l-7.6-11.2L-185.3,375.2z"/>
<path class="st0" d="M-258.1,436.8h49.5c1.1,0,1.8-0.7,1.8-1.8c0-1.1-0.7-1.8-1.8-1.8h-49.5c-1.1,0-1.8,0.7-1.8,1.8
	C-259.9,436.1-259.2,436.8-258.1,436.8z"/>
<path class="st0" d="M-258.1,445.7h32.9c1.1,0,1.8-0.7,1.8-1.8s-0.7-1.8-1.8-1.8h-32.9c-1.1,0-1.8,0.7-1.8,1.8
	S-259.2,445.7-258.1,445.7z"/>
</svg>
