<?xml version="1.0" encoding="utf-8"?>
<!-- Generator: Adobe Illustrator 19.0.0, SVG Export Plug-In . SVG Version: 6.00 Build 0)  -->
<svg version="1.1" id="Layer_1" xmlns="http://www.w3.org/2000/svg" xmlns:xlink="http://www.w3.org/1999/xlink" x="0px" y="0px"
	 width="101px" height="101px" viewBox="-255 346 101 101" style="enable-background:new -255 346 101 101;" xml:space="preserve">
<style type="text/css">
	.st0{fill:#654dc6;}
</style>
<title>streamControl</title>
<path class="st0" d="M-226.8,422.1v-49.2l24.6,24.6L-226.8,422.1z M-222.8,382.5v30.1l15-15L-222.8,382.5z"/>
<path class="st0" d="M-183.2,421.3h-13.9v-47.5h13.9V421.3z M-193.1,417.3h5.9v-39.6h-5.9V417.3z"/>
<path class="st0" d="M-179.7,447h-49.5c-14.2,0-25.7-11.5-25.7-25.7l0,0v-49.5c0-14.2,11.5-25.7,25.7-25.7l0,0h49.5
	c14.2,0,25.7,11.5,25.7,25.7l0,0v49.5C-154,435.5-165.5,447-179.7,447L-179.7,447z M-229.3,350c-12,0-21.8,9.8-21.8,21.8l0,0v49.5
	c0,12,9.8,21.8,21.8,21.8l0,0h49.5c12,0,21.8-9.8,21.8-21.8l0,0v-49.5c0-12-9.8-21.8-21.8-21.8l0,0H-229.3z"/>
</svg>
