<?xml version="1.0" encoding="utf-8"?>
<!-- Generator: Adobe Illustrator 19.0.0, SVG Export Plug-In . SVG Version: 6.00 Build 0)  -->
<svg version="1.1" id="Layer_1" xmlns="http://www.w3.org/2000/svg" xmlns:xlink="http://www.w3.org/1999/xlink" x="0px" y="0px"
	 width="65px" height="94px" viewBox="-287 370.9 65 94" style="enable-background:new -287 370.9 65 94;" xml:space="preserve">
<style type="text/css">
	.st0{fill:#654dc6;}
</style>
<title>mobile</title>
<path class="st0" d="M-222,464.9h-65v-94h65V464.9z M-283.5,461.3h58v-86.9h-58V461.3z"/>
<rect x="-285.2" y="385.7" class="st0" width="61.5" height="3.5"/>
<rect x="-285.2" y="446.9" class="st0" width="61.5" height="3.5"/>
<rect x="-256.5" y="453.9" class="st0" width="4" height="3.5"/>
<rect x="-260.9" y="378.6" class="st0" width="12.8" height="3.5"/>
<path class="st0" d="M-244,415.3l-16.5-9.5c-0.3-0.2-0.7-0.2-1,0c-0.3,0.2-0.5,0.5-0.5,0.8v19c0,0.3,0.2,0.7,0.5,0.8
	c0.1,0.1,0.3,0.1,0.5,0.1c0.2,0,0.3,0,0.5-0.1l16.5-9.5c0.3-0.2,0.5-0.5,0.5-0.8C-243.5,415.8-243.7,415.5-244,415.3z"/>
</svg>
