<?xml version="1.0" encoding="utf-8"?>
<!-- Generator: Adobe Illustrator 23.0.6, SVG Export Plug-In . SVG Version: 6.00 Build 0)  -->
<svg version="1.1" id="Layer_1" xmlns="http://www.w3.org/2000/svg" xmlns:xlink="http://www.w3.org/1999/xlink" x="0px" y="0px"
	 width="148.7px" height="161.3px" viewBox="0 0 148.7 161.3" style="enable-background:new 0 0 148.7 161.3;" xml:space="preserve"
	>
<style type="text/css">
	.st0{fill:none;stroke:#654DC6;stroke-width:4;stroke-linecap:round;stroke-linejoin:round;}
</style>
<title>upgrade</title>
<line class="st0" x1="74.3" y1="94.3" x2="74.3" y2="42.9"/>
<polyline class="st0" points="103.2,73.1 74.3,42.9 45.5,73.1 "/>
<line class="st0" x1="74.3" y1="107.3" x2="74.3" y2="107.5"/>
<line class="st0" x1="74.3" y1="120.9" x2="74.3" y2="121.1"/>
<line class="st0" x1="74.3" y1="146.2" x2="74.3" y2="146.4"/>
<circle class="st0" cx="74.3" cy="146.2" r="13.2"/>
<path class="st0" d="M44.9,121.1c-17.1-10.3-27.5-28.8-27.5-48.8c0-31.5,25.5-57,57-57s57,25.5,57,57c0,20.2-10.7,38.9-28.1,49.2"/>
<path class="st0" d="M45.4,140.7C19.1,129.2,2,103.1,2,74.4C2,34.4,34.4,2,74.3,2c0,0,0,0,0,0c40,0,72.4,32.4,72.4,72.3
	c0,28.8-17.1,54.8-43.5,66.3"/>
</svg>
