<?xml version="1.0" encoding="utf-8"?>
<!-- Generator: Adobe Illustrator 23.0.6, SVG Export Plug-In . SVG Version: 6.00 Build 0)  -->
<svg version="1.1" id="Layer_1" xmlns="http://www.w3.org/2000/svg" xmlns:xlink="http://www.w3.org/1999/xlink" x="0px" y="0px"
	 width="180.8px" height="157.1px" viewBox="0 0 180.8 157.1" style="enable-background:new 0 0 180.8 157.1;" xml:space="preserve"
	>
<style type="text/css">
	.st0{fill:#654dc6;}
	.st1{fill:#654dc6;stroke:#FF0000;stroke-width:4;stroke-linecap:round;stroke-linejoin:round;}
</style>
<title>gear</title>
<path class="st0" d="M175.8,80.1h-12.2c-0.9-0.1-1.6-0.7-2-1.5c0,0,0-0.1,0-0.1l-1.6-4c0-0.1,0-0.1-0.1-0.2
	c-0.3-0.8-0.2-1.8,0.4-2.5l8.6-8.6c0.9-0.9,1.5-2.2,1.5-3.5c0-1.3-0.5-2.6-1.5-3.5l-6.8-6.8c-2-2-5.1-2-7.1,0l-8.6,8.6
	c-0.7,0.6-1.6,0.7-2.5,0.4l-0.2-0.1l-4.1-1.7l-0.1,0c-0.8-0.4-1.4-1.1-1.5-2V42.4c0-2.8-2.2-5-5-5h-9.6c-2.8,0-5,2.2-5,5v12
	c-0.1,0.9-0.7,1.7-1.5,2h-0.1l-4.1,1.7l-0.2,0.1c-0.8,0.3-1.8,0.2-2.5-0.4l-8.5-8.5c-2-2-5.1-2-7.1,0l-6.8,6.8
	c-0.9,0.9-1.5,2.2-1.5,3.5c0,1.3,0.5,2.6,1.5,3.5l8.5,8.5c0.6,0.7,0.7,1.6,0.4,2.5l-0.1,0.2l-1.7,4.2c0,0,0,0.1,0,0.1
	c-0.4,0.8-1.1,1.4-2,1.5H80.9c-2.8,0-5,2.2-5,5v9.6c0,2.8,2.2,5,5,5h11.9c0.9,0.1,1.6,0.7,2,1.5c0,0,0,0.1,0,0.1l1.7,4.2l0.1,0.2
	c0.3,0.8,0.2,1.8-0.4,2.5l-8.5,8.5c-0.9,0.9-1.5,2.2-1.5,3.5c0,1.3,0.5,2.6,1.5,3.5l6.8,6.8c2,2,5.1,2,7.1,0l8.5-8.5
	c0.7-0.6,1.6-0.7,2.5-0.4l0.2,0.1l4.1,1.7h0.1c0.8,0.3,1.4,1.1,1.5,2v12c0,2.8,2.2,5,5,5h9.6c2.8,0,5-2.2,5-5v-12
	c0.1-0.9,0.7-1.6,1.5-2h0.1l4.1-1.7c0.1,0,0.1,0,0.2-0.1c0.8-0.3,1.8-0.2,2.5,0.4l8.6,8.6c2,2,5.1,2,7.1,0l6.8-6.8
	c0.9-0.9,1.5-2.2,1.5-3.5c0-1.3-0.5-2.6-1.5-3.5l-8.6-8.6c-0.6-0.7-0.7-1.6-0.4-2.5c0,0,0.1-0.1,0.1-0.1l1.6-4c0,0,0-0.1,0-0.1
	c0.3-0.8,1.1-1.4,2-1.5h12.2c2.8,0,5-2.2,5-5v-9.6c0.1-2.8-2.1-5-4.9-5.1C175.9,80.1,175.8,80.1,175.8,80.1z M176.8,94.7
	c0,0.6-0.4,1-1,1h-12.2c-2.6,0.1-4.9,1.7-5.8,4.2l-1.6,3.9c-1,2.4-0.6,5.1,1.2,7l8.6,8.6c0.2,0.2,0.3,0.4,0.3,0.7
	c0,0.3-0.1,0.5-0.3,0.7l-6.8,6.8c-0.4,0.4-1,0.4-1.4,0c0,0,0,0,0,0l-8.6-8.6c-1.9-1.7-4.6-2.2-7-1.2l-3.9,1.6
	c-2.4,0.9-4,3.2-4.1,5.8v12.1c0,0.6-0.4,1-1,1h-9.6c-0.6,0-1-0.4-1-1v-12c-0.1-2.6-1.7-4.9-4.2-5.8l-4-1.6c-2.4-1-5.1-0.6-7,1.2
	l-8.5,8.5c-0.4,0.4-1,0.4-1.4,0l-6.8-6.8c-0.2-0.2-0.3-0.4-0.3-0.7c0-0.3,0.1-0.5,0.3-0.7l8.5-8.5c1.7-1.9,2.2-4.6,1.2-7l-1.7-4.1
	c-0.9-2.4-3.2-4-5.8-4.1H80.8c-0.6,0-1-0.4-1-1v-9.6c0-0.6,0.4-1,1-1h11.9c2.6-0.1,4.9-1.7,5.8-4.2l1.6-4.1c1-2.4,0.6-5.1-1.2-7
	l-8.5-8.5c-0.2-0.2-0.3-0.4-0.3-0.7c0-0.3,0.1-0.5,0.3-0.7l6.8-6.8c0.4-0.4,1-0.4,1.4,0l8.5,8.5c1.9,1.8,4.6,2.2,7,1.2l4-1.6
	c2.4-0.9,4.1-3.2,4.2-5.8v-12c0-0.6,0.4-1,1-1h9.6c0.6,0,1,0.4,1,1v12.1c0.1,2.6,1.7,4.9,4.1,5.8l3.9,1.6c2.4,1.1,5.1,0.6,7-1.1
	l8.6-8.6c0.4-0.4,1-0.4,1.4,0c0,0,0,0,0,0l6.8,6.8c0.2,0.2,0.3,0.4,0.3,0.7c0,0.3-0.1,0.5-0.3,0.7l-8.6,8.6c-1.8,1.9-2.2,4.6-1.2,7
	l1.6,3.9c0.9,2.4,3.2,4.1,5.8,4.2h12.2c0.6,0,1,0.4,1,1L176.8,94.7z"/>
<path class="st0" d="M128.1,74.4c-8.5,0-15.5,6.9-15.5,15.5c0,8.6,6.9,15.5,15.5,15.5c8.6,0,15.5-6.9,15.5-15.5
	C143.6,81.3,136.6,74.4,128.1,74.4z M128.1,101.4c-6.3,0-11.5-5.2-11.5-11.5c0-6.3,5.2-11.5,11.5-11.5c6.3,0,11.5,5.1,11.5,11.5
	C139.6,96.2,134.5,101.4,128.1,101.4C128.1,101.4,128.1,101.4,128.1,101.4L128.1,101.4z"/>
<path class="st0" d="M78.3,71.3l2.1-5.8c0.5-1.2,0.4-2.6-0.2-3.8c-0.6-1.2-1.6-2.1-2.8-2.6l-7.7-2.7c-0.8-0.3-1.3-0.9-1.4-1.7
	c0-1.5,0.7-4.3,1.2-5l7.3-3.5c2.5-1.2,3.6-4.2,2.4-6.7c0,0,0,0,0,0l-2.7-5.6c-0.6-1.2-1.6-2.1-2.8-2.6c-1.2-0.4-2.6-0.4-3.8,0.2
	l-7.4,3.5c-0.7,0.3-1.6,0.2-2.3-0.3c-1.2-1.2-2.1-2.7-2.6-4.3l2.7-7.6c0.5-1.2,0.4-2.6-0.2-3.8c-0.6-1.2-1.6-2.1-2.8-2.6l-5.8-2.1
	c-2.6-0.9-5.5,0.4-6.4,3l-2.7,7.7c-0.3,0.8-0.9,1.3-1.7,1.4c-1.6,0-4.3-0.7-5-1.2L32,18.1c-1.2-2.5-4.2-3.5-6.7-2.3l-5.6,2.7
	c-1.2,0.6-2.1,1.6-2.6,2.8c-0.4,1.2-0.4,2.6,0.2,3.8l3.5,7.3c0.3,0.8,0.2,1.6-0.3,2.3c-1.3,1.2-2.8,2.1-4.4,2.7l-7.4-2.6
	c-2.6-0.9-5.5,0.4-6.4,3l-2.1,5.8c-0.4,1.2-0.4,2.6,0.2,3.8c0.6,1.2,1.6,2.1,2.8,2.6l7.5,2.7c0.8,0.3,1.3,1,1.4,1.8
	c0,1.6-0.7,4.4-1.2,5.1L4,62.8c-1.2,0.6-2.1,1.6-2.5,2.8c-0.4,1.2-0.4,2.6,0.2,3.8l2.7,5.6c0.6,1.2,1.6,2.1,2.8,2.6
	c1.2,0.4,2.6,0.4,3.8-0.2l7.2-3.4c0.8-0.3,1.7-0.2,2.3,0.3c1.1,1.1,2.6,3.5,2.7,4.4l-2.6,7.4c-0.4,1.2-0.4,2.6,0.2,3.8
	c0.6,1.2,1.6,2.1,2.8,2.6l5.8,2.1c0.5,0.2,1.1,0.3,1.7,0.3c2.1,0,4-1.3,4.7-3.3l2.7-7.6c0.3-0.8,1-1.3,1.8-1.4l0,0
	c1.7,0.1,3.4,0.5,5,1.2l3.4,7.2c0.6,1.2,1.6,2.1,2.8,2.6c1.2,0.5,2.6,0.4,3.8-0.2l5.6-2.7c1.2-0.6,2.1-1.6,2.6-2.8
	c0.5-1.2,0.4-2.6-0.2-3.8l-3.5-7.3c-0.3-0.8-0.2-1.6,0.3-2.3c1.1-1.1,3.5-2.6,4.3-2.7l7.5,2.7C74.5,75.2,77.3,73.9,78.3,71.3
	C78.3,71.3,78.3,71.3,78.3,71.3z M76.6,64.1L74.5,70c-0.2,0.5-0.8,0.8-1.3,0.6c0,0,0,0,0,0l-7.7-2.7c-3.2-1.2-8.3,3.5-8.3,3.6
	c-1.8,1.9-2.2,4.6-1.1,6.9l3.5,7.3c0.1,0.2,0.1,0.5,0,0.8c-0.1,0.3-0.3,0.5-0.5,0.6l-5.6,2.7c-0.2,0.1-0.5,0.1-0.8,0
	c-0.3-0.1-0.5-0.3-0.6-0.5l-3.5-7.3c-1.5-3.1-8.4-3.3-8.5-3.3c-2.5,0.1-4.8,1.7-5.7,4.1L32,90.2c-0.2,0.5-0.8,0.8-1.3,0.6
	c0,0,0,0,0,0l-5.8-2.1c-0.3-0.1-0.5-0.3-0.6-0.5c-0.1-0.2-0.1-0.5,0-0.8l2.7-7.5c1.2-3.2-3.6-8.3-3.6-8.4c-1.1-1.1-2.7-1.7-4.3-1.7
	c-0.9,0-1.8,0.2-2.6,0.6l-7.2,3.4C9,74,8.7,74,8.5,73.9c-0.3-0.1-0.5-0.3-0.6-0.5l-2.7-5.6c-0.1-0.2-0.1-0.5,0-0.8
	c0.1-0.3,0.3-0.5,0.5-0.6L13,63c3.1-1.5,3.3-8.4,3.3-8.5c0-2.6-1.7-4.8-4.1-5.7l-7.5-2.7c-0.3-0.1-0.5-0.3-0.6-0.5
	c-0.1-0.2-0.1-0.5,0-0.8l2.1-5.8c0.2-0.5,0.8-0.8,1.3-0.6c0,0,0,0,0,0l7.6,2.7c3.2,1.2,8.3-3.5,8.3-3.6c1.8-1.8,2.2-4.6,1.2-6.9
	l-3.5-7.3c-0.1-0.2-0.1-0.5,0-0.8c0.1-0.3,0.3-0.5,0.5-0.6l5.6-2.7c0.5-0.2,1.1,0,1.3,0.5c0,0,0,0,0,0l3.5,7.3
	c1.5,3.1,8.3,3.4,8.4,3.4c2.5,0,4.8-1.7,5.6-4.1l2.7-7.7c0.2-0.5,0.8-0.8,1.3-0.6c0,0,0,0,0,0l5.8,2.1c0.3,0.1,0.5,0.3,0.6,0.5
	c0.1,0.2,0.1,0.5,0,0.8l-2.7,7.7c-1.2,3.2,3.5,8.3,3.5,8.3c1.8,1.8,4.6,2.2,6.9,1.1l7.4-3.5c0.2-0.1,0.5-0.1,0.8,0
	c0.3,0.1,0.5,0.3,0.6,0.5l2.7,5.6c0.2,0.5,0,1.1-0.5,1.3l-7.4,3.5c-3.1,1.5-3.3,8.3-3.3,8.4c0.1,2.5,1.7,4.8,4.1,5.6l7.7,2.7
	c0.2,0.1,0.4,0.3,0.6,0.5C76.7,63.6,76.7,63.9,76.6,64.1L76.6,64.1z"/>
<path class="st0" d="M44.4,42.8c-3.1-1.1-6.6-0.9-9.6,0.5c-6.2,3-8.9,10.4-5.9,16.7c2.1,4.4,6.5,7.1,11.3,7.1c1.9,0,3.7-0.4,5.4-1.2
	c6.2-3,8.9-10.4,5.9-16.7C50.1,46.2,47.6,43.9,44.4,42.8z M43.9,62.3c-4.2,2-9.3,0.2-11.3-4c-2-4.2-0.2-9.3,4-11.4
	c1.1-0.5,2.4-0.8,3.7-0.8c1,0,1.9,0.2,2.9,0.5c2.1,0.8,3.9,2.3,4.8,4.4C49.9,55.2,48.1,60.3,43.9,62.3L43.9,62.3z"/>
<path class="st0" d="M88.3,30.8c-0.8,0-1.5-0.5-1.8-1.2C80,14.5,64.3,4,48.3,4c-1.1,0-2-0.9-2-2s0.9-2,2-2C65.8,0,83,11.5,90.2,28
	c0.4,1,0,2.2-1,2.6C88.9,30.8,88.6,30.8,88.3,30.8z"/>
<path class="st0" d="M106.3,157.1c-0.1,0-0.2,0-0.3,0c-28.1-4.5-50.9-31.8-47-56.1c0.2-1.1,1.2-1.8,2.3-1.7c0,0,0,0,0,0
	c1.1,0.2,1.8,1.2,1.7,2.3c-3.5,21.8,18.1,47.4,43.7,51.5c1.1,0.2,1.8,1.2,1.7,2.3c0,0,0,0,0,0C108,156.4,107.2,157.1,106.3,157.1z"
	/>
<path class="st1" d="M57.3,108"/>
<path class="st1" d="M57.2,106.8"/>
</svg>
