<?xml version="1.0" encoding="utf-8"?>
<!-- Generator: Adobe Illustrator 19.0.0, SVG Export Plug-In . SVG Version: 6.00 Build 0)  -->
<svg version="1.1" id="Layer_1" xmlns="http://www.w3.org/2000/svg" xmlns:xlink="http://www.w3.org/1999/xlink" x="0px" y="0px"
	 width="147.4px" height="145.4px" viewBox="-231 324.6 147.4 145.4" style="enable-background:new -231 324.6 147.4 145.4;"
	 xml:space="preserve">
<style type="text/css">
	.st0{fill:#e54635;}
</style>
<title>router</title>
<path class="st0" d="M-95.9,423.8h-4.8v-29.4c0-2.8-2.3-5.2-5.2-5.2c-2.8,0-5.2,2.3-5.2,5.2v29.4h-41.1v-29.4c0-2.9-2.3-5.2-5.2-5.2
	c-2.8,0-5.2,2.3-5.2,5.2v29.4h-38.7v-29.4c0-2.8-2.3-5.2-5.2-5.2c-2.8,0-5.2,2.3-5.2,5.2v29.4h-7.2c-6.8,0-12.3,5.5-12.3,12.3v11.8
	c0,6,4.3,11.1,10.2,12.1c-0.5,1-0.7,2-0.7,3.1c0,3.8,3.1,6.9,6.9,6.9h13.6c3.8,0,6.9-3.1,6.9-6.9c0-1-0.2-2-0.6-2.9h75.8
	c-0.4,0.9-0.6,1.9-0.6,2.9c0,3.8,3.1,6.9,6.9,6.9h13.6c3.8,0,6.9-3.1,6.9-6.9c0-1.1-0.3-2.2-0.8-3.2c5.5-1.3,9.4-6.3,9.4-12v-11.8
	C-83.6,429.3-89.1,423.8-95.9,423.8z M-107,394.3c0-0.6,0.5-1.2,1.2-1.2c0.6,0,1.2,0.5,1.2,1.2v29.4h-2.3L-107,394.3z M-158.4,394.3
	c0-0.6,0.5-1.2,1.2-1.2c0.6,0,1.2,0.5,1.2,1.2v29.4h-2.3L-158.4,394.3z M-207.4,394.3c0-0.6,0.5-1.2,1.2-1.2c0.6,0,1.2,0.5,1.2,1.2
	v29.4h-2.3L-207.4,394.3z M-198.1,463.1c0,1.6-1.3,2.9-2.9,2.9h-13.6c-1.6,0-2.9-1.3-2.9-2.9v0c0-1.5,1.1-2.7,2.6-2.9h14.2
	C-199.2,460.4-198.1,461.6-198.1,463.1L-198.1,463.1z M-99.1,466h-13.6c-1.6,0-2.9-1.3-2.9-2.9v0c0-1.5,1.1-2.7,2.6-2.9h14.2
	c1.5,0.2,2.6,1.4,2.6,2.9C-96.2,464.7-97.5,466-99.1,466L-99.1,466z M-87.6,447.9c0,4.6-3.7,8.3-8.3,8.3h-2.6h-0.6h-13.6h-0.6h-87.1
	h-0.6h-13.6c-0.2,0-0.4,0-0.6,0h-3.4c-4.6,0-8.3-3.7-8.3-8.3v-11.8c0-4.6,3.7-8.3,8.3-8.3h122.8c4.6,0,8.3,3.7,8.3,8.3L-87.6,447.9z
	"/>
<path class="st0" d="M-123,434.1c-4.4,0-7.9,3.5-7.9,7.9c0,4.4,3.5,7.9,7.9,7.9c4.4,0,7.9-3.5,7.9-7.9
	C-115.1,437.7-118.6,434.1-123,434.1z M-123,445.9c-2.1,0-3.9-1.7-3.9-3.9l0,0c0-2.1,1.7-3.9,3.9-3.9l0,0c2.1,0,3.9,1.7,3.9,3.9l0,0
	C-119.1,444.2-120.9,445.9-123,445.9L-123,445.9z"/>
<path class="st0" d="M-143.3,434.1c-4.4,0-7.9,3.5-7.9,7.9c0,4.4,3.5,7.9,7.9,7.9c4.4,0,7.9-3.5,7.9-7.9
	C-135.4,437.7-138.9,434.1-143.3,434.1z M-143.3,445.9c-2.1,0-3.9-1.7-3.9-3.9c0-2.1,1.7-3.9,3.9-3.9l0,0c2.1,0,3.9,1.7,3.9,3.9l0,0
	C-139.4,444.2-141.1,445.9-143.3,445.9L-143.3,445.9z"/>
<path class="st0" d="M-102.7,434.1c-4.4,0-7.9,3.5-7.9,7.9s3.5,7.9,7.9,7.9c4.4,0,7.9-3.5,7.9-7.9
	C-94.8,437.7-98.4,434.1-102.7,434.1z M-102.7,445.9c-2.1,0-3.9-1.7-3.9-3.9s1.7-3.9,3.9-3.9c2.1,0,3.9,1.7,3.9,3.9l0,0
	C-98.8,444.2-100.6,445.9-102.7,445.9L-102.7,445.9z"/>
<path class="st0" d="M-158,368c-8,0-15.6,3.5-20.9,9.5c-0.7,0.8-0.6,2.1,0.2,2.8c0.8,0.7,2.1,0.6,2.8-0.2c4.5-5.1,11-8.1,17.8-8.1
	c7.5,0,14.5,3.6,19,9.6c0.4,0.5,1,0.8,1.6,0.8c0.4,0,0.8-0.1,1.2-0.4c0.9-0.7,1.1-1.9,0.4-2.8c0,0,0,0,0,0
	C-141,372.1-149.2,368-158,368z"/>
<path class="st0" d="M-124.9,367.6c0.4,0.4,0.9,0.7,1.5,0.7c0.5,0,0.9-0.2,1.3-0.5c0.8-0.7,0.9-2,0.2-2.8c0,0,0,0,0,0
	c-9-10.6-22.2-16.8-36.2-16.8c-13.2,0-25.8,5.5-34.7,15.2c-0.8,0.8-0.7,2.1,0.1,2.8c0,0,0,0,0,0c0.8,0.8,2.1,0.7,2.8-0.1
	c0,0,0,0,0,0c8.2-8.8,19.7-13.9,31.8-13.9C-145.2,352.3-133.1,357.9-124.9,367.6z"/>
<path class="st0" d="M-206.5,349.5c12.6-13.4,30.2-20.9,48.6-20.8c19,0,37.2,8.1,49.9,22.3c0.4,0.4,0.9,0.7,1.5,0.7
	c0.5,0,1-0.2,1.3-0.5c0.8-0.7,0.9-2,0.2-2.8c-13.5-15-32.7-23.6-52.9-23.6c-19.5-0.1-38.1,7.9-51.5,22.1c-0.8,0.8-0.7,2.1,0.1,2.8
	c0,0,0,0,0,0C-208.5,350.3-207.3,350.3-206.5,349.5C-206.5,349.5-206.5,349.5-206.5,349.5z"/>
</svg>
