<?xml version="1.0" encoding="utf-8"?>
<!-- Generator: Adobe Illustrator 23.0.6, SVG Export Plug-In . SVG Version: 6.00 Build 0)  -->
<svg version="1.1" id="Layer_1" xmlns="http://www.w3.org/2000/svg" xmlns:xlink="http://www.w3.org/1999/xlink" x="0px" y="0px"
	 width="70px" height="32.3px" viewBox="0 0 70 32.3" style="enable-background:new 0 0 70 32.3;" xml:space="preserve">
<style type="text/css">
	.st0{fill:#221e1f;}
</style>
<path class="st0" d="M28.9,0H3.4C1.5,0,0,1.5,0,3.4l0,0v25.5c0,1.9,1.5,3.4,3.4,3.4h25.5c1.9,0,3.4-1.5,3.4-3.4V3.4
	C32.3,1.5,30.8,0,28.9,0z M21.7,26.6l-1.8-5.1h-6.2l0,0c0,0,0.1-0.4,0.2-0.7c0.1-0.3,0.1-0.6-0.1-0.6c-0.2,0-0.2-0.3,0-0.4
	c0.1-0.1,0.5-0.2,1.4-0.7s0.3-0.8,0-0.9c-0.1-0.1-0.2-0.3-0.2-0.6h3.4L16.2,11L14,17.3l0,0c0,0-0.3,0.7,0,0.9c0.3,0.3,0.9,0.5,0,0.9
	s-1.3,0.6-1.4,0.7c-0.1,0.1-0.2,0.3,0,0.4c0.3,0,0.2,0.3,0.1,0.6l-0.2,0.4l0,0l-1.9,5.4h-4l1.9-5.3l0,0l0.2-0.5
	c0.1-0.3,0.1-0.6-0.1-0.6c-0.2,0-0.1-0.3,0-0.4s0.5-0.2,1.4-0.7s0.3-0.8,0-0.9c-0.3-0.2,0-0.9,0-0.9v-0.1l4.2-11.9h4l4.2,12
	c0,0,0,0,0,0.1l0,0c0.1,0.3,0.4,0.6,0.7,0.8c0.6,0.4,1.7,0.6,0.8,1c-0.4,0.2-0.8,0.4-1.1,0.6c-0.1,0.1-0.1,0.3,0.1,0.5
	s0.5,0.2,0.6,0.5s0.1,0.5,0.1,0.5l0,0l1.9,5.4L21.7,26.6z"/>
<path class="st0" d="M42.4,7.7h-2.9v2.1H39V5.2h0.5v2h2.9v-2h0.5v4.6h-0.5V7.7z"/>
<path class="st0" d="M46.3,5.1c1.3,0,2.3,0.9,2.4,2.2v0.1c0,1.3-1,2.4-2.4,2.4c-1.3,0-2.4-1-2.4-2.4C43.9,6.2,44.9,5.2,46.3,5.1
	C46.2,5.1,46.2,5.1,46.3,5.1z M46.3,9.4c1,0,1.8-0.8,1.9-1.8V7.5c0-1-0.8-1.9-1.9-1.9c-1,0-1.9,0.8-1.9,1.9
	C44.4,8.6,45.3,9.4,46.3,9.4L46.3,9.4z"/>
<path class="st0" d="M49.8,5.2h0.5l1.9,2.4L54,5.2h0.4v4.6h-0.5V6l-1.8,2.4l0,0L50.2,6v3.9h-0.5L49.8,5.2L49.8,5.2z"/>
<path class="st0" d="M55.8,5.2h2.7v0.5h-2.3v1.6h2.1v0.5h-2.1v1.6h2.3v0.5h-2.8L55.8,5.2L55.8,5.2z"/>
<path class="st0" d="M63.8,5.1c1.3,0,2.3,0.9,2.4,2.2v0.1c0,1.3-1,2.4-2.4,2.4c-1.3,0-2.4-1-2.4-2.4C61.4,6.2,62.4,5.2,63.8,5.1
	C63.7,5.1,63.7,5.1,63.8,5.1z M63.8,9.4c1,0,1.8-0.8,1.9-1.8V7.5c0-1-0.8-1.9-1.9-1.9s-1.9,0.8-1.9,1.9C61.9,8.6,62.8,9.4,63.8,9.4
	L63.8,9.4z"/>
<path class="st0" d="M67.3,5.2H70v0.5h-2.3v1.7h2.1v0.5h-2.1v2h-0.5V5.2H67.3z"/>
<path class="st0" d="M68.5,14.8c0-0.4,0.3-0.8,0.7-0.8c0.4,0,0.8,0.3,0.8,0.7c0,0.4-0.3,0.8-0.7,0.8l0,0
	C68.8,15.5,68.5,15.2,68.5,14.8L68.5,14.8z M69.2,15.4c0.3,0,0.6-0.2,0.6-0.6s-0.2-0.6-0.6-0.6s-0.6,0.2-0.6,0.6l0,0
	C68.6,15.1,68.9,15.4,69.2,15.4L69.2,15.4L69.2,15.4z M69.1,15.2L69.1,15.2L69,14.4h0.3c0.2,0,0.3,0,0.3,0.2c0,0.1-0.1,0.2-0.2,0.2
	l0,0l0.2,0.4h-0.1l-0.2-0.4h-0.1v0.4H69.1z M69.2,14.7c0.1,0,0.2,0,0.2-0.1s-0.1-0.1-0.2-0.1H69v0.2H69.2z"/>
<path class="st0" d="M48.1,26.6h-3.4v-4.8h-2.2v4.8H39V14.1h3.5v4.7h2.2v-4.7h3.4L48.1,26.6z M63.6,26.7c3.5,0,6.4-2.9,6.4-6.4
	s-2.8-6.4-6.4-6.4c-2.4,0-4.7,1.4-5.7,3.6c0-1.6-1.6-3.4-3.3-3.4h-5.8v12.5h5.4c2,0,3.6-1.6,3.7-3.5C59,25.3,61.2,26.7,63.6,26.7
	L63.6,26.7z M53.8,21.6c0.6,0.1,1,0.7,0.9,1.2s-0.4,0.8-0.9,0.9H52v-2.1H53.8z M53.8,16.9c0.6,0.1,1,0.7,0.9,1.2s-0.4,0.8-0.9,0.9
	H52v-2.1H53.8z M56,20.3c0.5-0.1,0.9-0.4,1.3-0.8c-0.1,0.6-0.1,1.2,0,1.7C57,20.8,56.6,20.4,56,20.3z M60.5,20.3
	c0-1.7,1.4-3.2,3.2-3.2s3.2,1.4,3.2,3.2s-1.4,3.2-3.2,3.2S60.5,22,60.5,20.3L60.5,20.3z M63.6,22.8c1.4,0,2.5-1.1,2.5-2.5
	s-1.1-2.5-2.5-2.5s-2.5,1.1-2.5,2.5l0,0C61.2,21.6,62.3,22.8,63.6,22.8L63.6,22.8z"/>
</svg>
