<svg id="Layer_2" data-name="Layer 2" xmlns="http://www.w3.org/2000/svg" width="194.6" height="138.33" viewBox="0 0 194.6 138.33"><defs><style>.cls-1{fill:#fff;}</style></defs><title>www2</title><path class="cls-1" d="M-1385.38,1231.47a69.16,69.16,0,0,0-69.16,69.17,69.15,69.15,0,0,0,69.16,69.16,68.86,68.86,0,0,0,41.45-13.79l-5.18-6.21-3.73,7.38a1,1,0,0,1-1.12.64,1.15,1.15,0,0,1-1-.86l-8.6-27.24a1.11,1.11,0,0,1,.37-1.27,1.08,1.08,0,0,1,1.27-.15l23.91,12.86a1.1,1.1,0,0,1,.61,1.16,1.08,1.08,0,0,1-.81,1.06l-6.72,2.12,5.64,6.74a69.1,69.1,0,0,0,6.13-6.21V1328.7l16.8-33.16A69.17,69.17,0,0,0-1385.38,1231.47Zm-26.39,84h-5l-5.72-21.93-5.83,21.93h-5l-6.93-30h5.18l4.66,22.58,5.74-22.58h4.37l5.67,22.62,4.63-22.62h5.17Zm37.17,0h-5l-5.71-21.93-5.84,21.93h-5l-6.94-30h5.18l4.66,22.58,5.74-22.58h4.37l5.68,22.62,4.62-22.62h5.18Zm37.18,0h-5l-5.71-21.93-5.84,21.93h-5l-6.93-30h5.18l4.66,22.58,5.74-22.58h4.37l5.68,22.62,4.62-22.62h5.18Z" transform="translate(1454.54 -1231.47)"/><polygon class="cls-1" points="194.6 98.66 194.6 116.76 186.04 116.76 186.04 130.46 166.23 130.46 166.23 116.76 127.34 116.76 127.34 98.66 137.75 78.12 154.61 44.86 175.65 44.86 148.37 98.66 166.23 98.66 166.23 80.32 186.04 80.32 186.04 98.66 194.6 98.66"/></svg>