<?xml version="1.0" encoding="utf-8"?>
<!-- Generator: Adobe Illustrator 19.0.0, SVG Export Plug-In . SVG Version: 6.00 Build 0)  -->
<svg version="1.1" id="Layer_1" xmlns="http://www.w3.org/2000/svg" xmlns:xlink="http://www.w3.org/1999/xlink" x="0px" y="0px"
	 width="106px" height="95.1px" viewBox="-278 373 106 95.1" style="enable-background:new -278 373 106 95.1;"
	 xml:space="preserve">
<style type="text/css">
	.st0{fill:#654dc6;}
</style>
<title>Saving</title>
<path class="st0" d="M-219.6,468.1c-11.3,0-22.4-4-30.9-11.5c-0.8-0.8-1-2-0.2-2.8l0,0c0.8-0.8,2-1,2.8-0.2l0,0
	c7.9,6.7,18,10.5,28.3,10.5c24.2,0,43.6-19.4,43.6-43.6c0-24.2-19.4-43.6-43.6-43.6s-43.6,19.4-43.6,43.6c0,0.6,0,1.2,0,2
	c0,1.2-0.8,2-2,2c-1.2,0-2-0.8-2-2c0-0.6,0-1.4,0-2c0-26.4,21.2-47.6,47.6-47.6c26.4,0,47.6,21.2,47.6,47.6
	S-193.2,468.1-219.6,468.1z"/>
<path class="st0" d="M-263.9,436.4l11.9-14.7c0.2-0.2,0.2-0.6,0-0.8c-0.2-0.2-0.6-0.4-1-0.4h-23.8c-0.4,0-0.8,0.2-1,0.4
	c-0.2,0.2-0.2,0.2-0.2,0.4c0,0.2,0,0.4,0.2,0.4l11.9,14.7c0.2,0.2,0.6,0.4,1,0.4C-264.5,436.8-264.1,436.6-263.9,436.4z"/>
<path class="st0" d="M-220.3,431.1c-4.6,0-8.1-3.6-8.1-8.1c0-4.6,3.6-8.1,8.1-8.1c4.6,0,8.1,3.6,8.1,8.1l0,0
	C-212.2,427.5-215.8,431.1-220.3,431.1z M-220.3,418.8c-2.4,0-4.2,2-4.2,4.2c0,2.4,1.8,4.2,4.2,4.2c2.4,0,4.2-1.8,4.2-4.2
	C-216.2,420.6-218,418.8-220.3,418.8z"/>
<path class="st0" d="M-220.5,418.8L-220.5,418.8c-1.2,0-2-0.8-2-2l0.2-27.7c0-1.2,0.8-2,2-2s2,0.8,2,2l-0.2,27.7
	C-218.6,417.8-219.4,418.8-220.5,418.8z"/>
<path class="st0" d="M-201.3,443.5c-0.4,0-1-0.2-1.4-0.6l-15.1-13.3c-0.8-0.8-0.8-2-0.2-2.8c0.8-0.8,2-1,2.8-0.2l14.9,13.3
	c0.8,0.8,1,2,0.2,2.8C-200.1,443.3-200.7,443.5-201.3,443.5z"/>
</svg>
