<?xml version="1.0" encoding="utf-8"?>
<!-- Generator: Adobe Illustrator 19.0.0, SVG Export Plug-In . SVG Version: 6.00 Build 0)  -->
<svg version="1.1" id="Layer_1" xmlns="http://www.w3.org/2000/svg" xmlns:xlink="http://www.w3.org/1999/xlink" x="0px" y="0px"
	 width="156.7px" height="146.2px" viewBox="-227 323.8 156.7 146.2" style="enable-background:new -227 323.8 156.7 146.2;"
	 xml:space="preserve">
<style type="text/css">
	.st0{fill:#e54635;}
</style>
<title>calendar</title>
<path class="st0" d="M-147.7,443.3H-218c-2.8,0-5-2.2-5-5V366h128v27.2c0,1.1,0.9,2,2,2s2-0.9,2-2v-48.9c0-5-4-9-9-9h-24.5v-2.5
	c0-2.4-1-4.7-2.7-6.3c-1.7-1.7-4-2.7-6.3-2.7c-5,0-9,4-9,9v2.5h-35v-2.5c0-2.4-1-4.7-2.6-6.3c-1.7-1.7-4-2.6-6.4-2.7c-5,0-9,4-9,9
	v2.5H-218c-5,0-9,4-9,9v94c0,5,4,9,9,9l0,0h70.3c1.1,0,2-0.9,2-2S-146.6,443.3-147.7,443.3z M-138.5,332.8c0-2.8,2.2-5,5-5
	c1.3,0,2.6,0.5,3.5,1.5c0.9,0.9,1.5,2.2,1.5,3.5v4.5l0,0v5.3c0,2.8-2.2,5-5,5s-5-2.2-5-5V332.8z M-191.5,332.8c0-2.8,2.2-5,5-5
	c1.3,0,2.6,0.5,3.5,1.5c0.9,0.9,1.5,2.2,1.5,3.5v9.8c0,2.8-2.2,5-5,5s-5-2.2-5-5V332.8z M-218,339.3h22.5v3.3c0,5,4,9,9,9s9-4,9-9
	v-3.3h35v3.3c0,5,4,9,9,9s9-4,9-9v-3.3h24.5c2.8,0,5,2.2,5,5V362h-128v-17.7C-223,341.6-220.8,339.3-218,339.3L-218,339.3z"/>
<path class="st0" d="M-92.2,402c-4.3-1.8-8.8-2.6-13.4-2.6c-19.5,0-35.3,15.8-35.3,35.3c0,1.1,0.9,2,2,2s2-0.9,2-2
	c0-17.3,14-31.3,31.3-31.3c4.1,0,8.1,0.8,11.9,2.3c11.8,4.8,19.5,16.3,19.4,29c0,17.3-14,31.3-31.3,31.3c-12.5,0-23.8-7.4-28.8-18.9
	l10.5,3.1c1.1,0.3,2.2-0.3,2.5-1.3c0.3-1.1-0.3-2.2-1.3-2.5c0,0,0,0,0,0l-14.2-4.2l0,0l-1.9-0.6l-0.6,1.9l0,0l-4.3,12.8
	c-0.4,1,0.2,2.2,1.2,2.5c0,0,0,0,0,0c0.2,0.1,0.4,0.1,0.6,0.1c0.9,0,1.6-0.5,1.9-1.4l2.6-7.7c5.9,12.3,18.2,20.1,31.8,20.1
	c19.5,0,35.3-15.8,35.3-35.3C-70.3,420.3-79,407.4-92.2,402z"/>
<path class="st0" d="M-105.7,415.2c-1.1,0-2,0.9-2,2v19.5h21.2c1.1,0,2-0.9,2-2s-0.9-2-2-2h-17.2v-15.5
	C-103.7,416.1-104.6,415.2-105.7,415.2z"/>
<path class="st0" d="M-156.5,378.7h-5.2c-1.1,0-2,0.9-2,2s0.9,2,2,2h5.2c1.1,0,2-0.9,2-2S-155.4,378.7-156.5,378.7z"/>
<path class="st0" d="M-145.5,378.7c-1.1,0-2,0.9-2,2s0.9,2,2,2h5.2c1.1,0,2-0.9,2-2s-0.9-2-2-2H-145.5z"/>
<path class="st0" d="M-129.3,378.7c-1.1,0-2,0.9-2,2s0.9,2,2,2h5.2c1.1,0,2-0.9,2-2s-0.9-2-2-2H-129.3z"/>
<path class="st0" d="M-113.1,378.7c-1.1,0-2,0.9-2,2s0.9,2,2,2h5.2c1.1,0,2-0.9,2-2s-0.9-2-2-2H-113.1z"/>
<path class="st0" d="M-205,394.7h-5.2c-1.1,0-2,0.9-2,2s0.9,2,2,2h5.2c1.1,0,2-0.9,2-2S-203.9,394.7-205,394.7z"/>
<path class="st0" d="M-188.8,394.7h-5.2c-1.1,0-2,0.9-2,2s0.9,2,2,2h5.2c1.1,0,2-0.9,2-2C-186.8,395.6-187.7,394.7-188.8,394.7z"/>
<path class="st0" d="M-172.7,394.7h-5.2c-1.1,0-2,0.9-2,2s0.9,2,2,2h5.2c1.1,0,2-0.9,2-2S-171.5,394.7-172.7,394.7z"/>
<path class="st0" d="M-156.5,394.7h-5.2c-1.1,0-2,0.9-2,2s0.9,2,2,2h5.2c1.1,0,2-0.9,2-2S-155.4,394.7-156.5,394.7z"/>
<path class="st0" d="M-138.5,396.7c0-1.1-0.9-2-2-2h-5.2c-1.1,0-2,0.9-2,2s0.9,2,2,2h5.2C-139.4,398.7-138.5,397.8-138.5,396.7z"/>
<path class="st0" d="M-205,410.7h-5.2c-1.1,0-2,0.9-2,2s0.9,2,2,2h5.2c1.1,0,2-0.9,2-2S-203.9,410.7-205,410.7z"/>
<path class="st0" d="M-188.8,410.7h-5.2c-1.1,0-2,0.9-2,2s0.9,2,2,2h5.2c1.1,0,2-0.9,2-2C-186.8,411.6-187.7,410.7-188.8,410.7z"/>
<path class="st0" d="M-172.7,410.7h-5.2c-1.1,0-2,0.9-2,2s0.9,2,2,2h5.2c1.1,0,2-0.9,2-2S-171.5,410.7-172.7,410.7z"/>
<path class="st0" d="M-156.5,410.7h-5.2c-1.1,0-2,0.9-2,2s0.9,2,2,2h5.2c1.1,0,2-0.9,2-2S-155.4,410.7-156.5,410.7z"/>
<path class="st0" d="M-205,426.7h-5.2c-1.1,0-2,0.9-2,2s0.9,2,2,2h5.2c1.1,0,2-0.9,2-2S-203.9,426.7-205,426.7z"/>
<path class="st0" d="M-188.8,426.7h-5.2c-1.1,0-2,0.9-2,2s0.9,2,2,2h5.2c1.1,0,2-0.9,2-2C-186.8,427.6-187.7,426.7-188.8,426.7z"/>
<path class="st0" d="M-172.7,426.7h-5.2c-1.1,0-2,0.9-2,2s0.9,2,2,2h5.2c1.1,0,2-0.9,2-2S-171.5,426.7-172.7,426.7z"/>
<path class="st0" d="M-156.5,426.7h-5.2c-1.1,0-2,0.9-2,2s0.9,2,2,2h5.2c1.1,0,2-0.9,2-2S-155.4,426.7-156.5,426.7z"/>
</svg>
