<svg id="Layer_2" data-name="Layer 2" xmlns="http://www.w3.org/2000/svg" width="153.05" height="141.1" viewBox="0 0 153.05 141.1"><defs><style>.cls-1{fill:#fff;}.cls-2{fill:none;}</style></defs><title>engineer2</title><path class="cls-1" d="M-1648.65,1267.74c0,.31,0,.62,0,.93v-.92Z" transform="translate(1700.24 -1232.77)"/><path class="cls-1" d="M-1648.65,1267.74c0,.31,0,.62,0,.93v-.92Z" transform="translate(1700.24 -1232.77)"/><path class="cls-1" d="M-1620.43,1265.81v-13.89a15.3,15.3,0,0,0-6.76-12.71l-.64-.4a.83.83,0,0,0-.16-.09c-.16-.1-.31-.2-.47-.28a40.09,40.09,0,0,0-20.64-5.67,40.09,40.09,0,0,0-20.64,5.67c-.16.08-.32.18-.48.28l-.16.09-.63.4a15.3,15.3,0,0,0-6.76,12.71V1266h0c0,.31,0,.62,0,.93V1266a6.63,6.63,0,0,0-4.28,6.47,13,13,0,0,0,1.62,5.43c1.44,2.8,3.62,5.3,5.55,5.3h.14c.3.89.62,1.78,1,2.67,4.83,12.36,13.69,23.82,24.67,24.05,11.26-.23,20.29-12.29,25-25,.24-.64.47-1.28.68-1.92a2.21,2.21,0,0,0,1,.22c2,0,4.35-2.78,5.78-5.77a12.35,12.35,0,0,0,1.39-5C-1615.27,1269-1617.52,1266.19-1620.43,1265.81Zm-36.75-19.39c.28-.26.56-.5.86-.74A12.7,12.7,0,0,1-1649,1243h.65a13,13,0,0,1,4.06.68,12.92,12.92,0,0,1,3.52,1.87c.35.27.68.55,1,.84s.34.32.5.49l-1.32,2.54-1,1.92a12.68,12.68,0,0,0-6.84-2,12.69,12.69,0,0,0-6.85,2l-1.13-2.17-1.19-2.29Zm30.45,29-2.76,5.29a35.12,35.12,0,0,0-18.94-5.5,35.12,35.12,0,0,0-19,5.5l-3.12-6-3.31-6.34c.38-.4.78-.79,1.18-1.17.77-.72,1.56-1.4,2.39-2.05a35.09,35.09,0,0,1,20.24-7.49c.52,0,1,0,1.57,0h.24a34.88,34.88,0,0,1,11.24,1.9,34.74,34.74,0,0,1,9.72,5.16,34.5,34.5,0,0,1,2.78,2.32c.48.44.94.89,1.39,1.36Z" transform="translate(1700.24 -1232.77)"/><line class="cls-2" x1="51.58" y1="49.65" x2="51.58" y2="49.64"/><line class="cls-2" x1="51.58" y1="49.65" x2="51.58" y2="49.64"/><path class="cls-1" d="M-1613.24,1364.77c-1.71,5-7.25,9.3-12.17,9-3.31-.19-5.07-2.4-6.83-4-.47-.43-1-.93-1.53-1.51l-.24-.26a3.7,3.7,0,0,0-2.62-1.08h-26.24a3.7,3.7,0,0,0-2.62,1.08c-.09.08-.16.18-.24.26-.53.58-1.07,1.08-1.53,1.51-1.76,1.65-3.52,3.86-6.84,4-4.91.28-10.45-4-12.15-9l.88.19.88.2,6.37,1.41a4.2,4.2,0,0,0,5-3.18l.17-.75.56-2.53a4.21,4.21,0,0,0-3.12-5l-7.5-1.67a16.21,16.21,0,0,1,8.3-3.23c1.64-.21,4.86-.52,7.38,1.45a8.48,8.48,0,0,1,1.9,2.23c.06.1.13.19.2.29v0l.09.15a3.72,3.72,0,0,0,.41.48,3.66,3.66,0,0,0,2.62,1.09h24.68a3.66,3.66,0,0,0,2.62-1.09,3.72,3.72,0,0,0,.41-.48c0-.06.07-.1.09-.15l0,0,.19-.29a8.34,8.34,0,0,1,1.91-2.23c2.52-2,5.73-1.66,7.37-1.45a16.21,16.21,0,0,1,8.3,3.23l-7.49,1.67a4.21,4.21,0,0,0-3.13,5l.57,2.53.16.75a4.2,4.2,0,0,0,5,3.18l6.37-1.41.89-.2Z" transform="translate(1700.24 -1232.77)"/><path class="cls-1" d="M-1596.63,1338.26a7.56,7.56,0,0,1-1.41,4.36l-11.92,6.91a9.9,9.9,0,0,0-1.37-1.81c-2.31-2.52-6.22-3.59-10.34-4.11a19.88,19.88,0,0,0-2.64-.19,12.25,12.25,0,0,0-7.7,2.45,12.48,12.48,0,0,0-2.76,3.15l0,0-.14.23h-27l-.14-.23,0,0a12.48,12.48,0,0,0-2.76-3.15,12.25,12.25,0,0,0-7.7-2.45,19.88,19.88,0,0,0-2.64.19c-4.12.52-8,1.59-10.34,4.11a6.09,6.09,0,0,0-1.66,2.5c-5.17-2.25-13-5.64-13-12a21,21,0,0,1,8-16.53l.12-.1,1.18-.86,0,0A72.23,72.23,0,0,1-1665,1309a24.48,24.48,0,0,0,11,5.61l5.36,12,.23.34.22-.34,5.36-12a24.48,24.48,0,0,0,10.95-5.61,72.23,72.23,0,0,1,25.94,11.71l0,0,1.18.86.12.1A21,21,0,0,1-1596.63,1338.26Z" transform="translate(1700.24 -1232.77)"/><path class="cls-1" d="M-1565.41,1321.29l14.79-18.84v-15.9h-55v18.35h31.31l-15.53,19.69,7.46,11.13h4c8.07,0,11.62,4.28,11.62,9.54s-3.55,9.53-11.62,9.53c-7.46,0-11.13-3.42-13.08-9l-16.88,9.79c5.26,12.59,17,18.34,30,18.34,16.51,0,31.19-9.78,31.19-28.61C-1547.19,1333.39-1554.9,1325-1565.41,1321.29Z" transform="translate(1700.24 -1232.77)"/><path class="cls-1" d="M-1565.41,1321.29l14.79-18.84v-15.9h-55v18.35h31.31l-15.53,19.69,7.46,11.13h4c8.07,0,11.62,4.28,11.62,9.54s-3.55,9.53-11.62,9.53c-7.46,0-11.13-3.42-13.08-9l-16.88,9.79c5.26,12.59,17,18.34,30,18.34,16.51,0,31.19-9.78,31.19-28.61C-1547.19,1333.39-1554.9,1325-1565.41,1321.29Z" transform="translate(1700.24 -1232.77)"/></svg>