<svg id="Layer_2" data-name="Layer 2" xmlns="http://www.w3.org/2000/svg" width="158.49" height="136.68" viewBox="0 0 158.49 136.68"><defs><style>.cls-1{fill:#fff;}</style></defs><title>operator2</title><path class="cls-1" d="M-1862.78,1278.7q0-.69,0-1.32c0-14.27-5.55-26.14-16-34.32-9.57-7.47-23.14-11.59-38.21-11.59s-28.65,4.12-38.22,11.59c-10.49,8.18-16,20-16,34.32,0,5.12,1.78,14.2,2.36,17a7,7,0,0,0-3.92,2.93,7.07,7.07,0,0,0-1,5.35l4.19,19.46a7,7,0,0,0,3.08,4.46,7,7,0,0,0,3.84,1.15,7.57,7.57,0,0,0,1.5-.16l.8-.17a14.2,14.2,0,0,0,12.9,8.09h.84a44.85,44.85,0,0,0,9.77,10.4,31.86,31.86,0,0,0,19.46,6.59h.83c14.43,0,26.73-9.46,34.74-26.65l8.14,1.75a7.65,7.65,0,0,0,1.5.16,7,7,0,0,0,3.85-1.15,7,7,0,0,0,3.08-4.45l2-9.11-18.81-11a52,52,0,0,1,.6,7.88q0,1.58-.09,3.15c0,.34-.07.69-.09,1-.06.7-.11,1.4-.19,2.09,0,.42-.13.84-.19,1.26-.09.61-.17,1.22-.27,1.82s-.2.93-.3,1.39-.21,1.08-.34,1.61l-.66,1.52,0,.1c-4.38,9.75-14.48,26.1-32.88,26.1h-.83a29.43,29.43,0,0,1-18-6.1,41.09,41.09,0,0,1-8.23-8.44l7.93-.12a7.11,7.11,0,0,0,7,5.89h8.92a7.1,7.1,0,0,0,7.1-7.09v-.84a7.1,7.1,0,0,0-7.1-7.09h-8.92a7.1,7.1,0,0,0-7,5.78l-10.21.17a66.32,66.32,0,0,1-4.51-8.43,90.43,90.43,0,0,1-7.29-29.23h0l-.1-1,0-1a31.21,31.21,0,0,1,24.07-11.29,35.28,35.28,0,0,0,4.35-.27,33.62,33.62,0,0,0,23.82-14.84,52.77,52.77,0,0,1,19.93,23.65,52.35,52.35,0,0,1,1.94,5.47q.24.81.45,1.62c.42,1.62.76,3.25,1,4.86l.06.38,2.09-4.84a37.1,37.1,0,0,1,10.51-14.11,28.63,28.63,0,0,0,.52-4.42,30.91,30.91,0,0,0-30.88-30.88h-.39l-.2-.14a39.91,39.91,0,0,0-22-6.54,40.25,40.25,0,0,0-34.42,19.56,39.79,39.79,0,0,0-3.26,6.85,40.1,40.1,0,0,0-2.38,13.65,40,40,0,0,0,1.67,11.49l-4.82,1c-.57-2.8-2.28-11.57-2.28-16.28,0-25.86,20-42.57,50.92-42.57s50.91,16.71,50.91,42.57c0,.95-.06,2.08-.16,3.28A35.89,35.89,0,0,1-1862.78,1278.7Zm-89.46,47a68,68,0,0,0,3.38,6.42,10.84,10.84,0,0,1-8.16-5.39Z" transform="translate(1973.96 -1231.47)"/><path class="cls-1" d="M-1939.56,1300c0-3.17,3-5.74,6.61-5.74s6.62,2.57,6.62,5.74Z" transform="translate(1973.96 -1231.47)"/><path class="cls-1" d="M-1907.67,1300.17c0-3,2.76-5.35,6.17-5.35s6.17,2.4,6.17,5.35Z" transform="translate(1973.96 -1231.47)"/><polygon class="cls-1" points="91.81 70.57 91.83 70.53 91.83 70.58 91.81 70.57"/><path class="cls-1" d="M-1815.47,1349.32v18.83h-58.21V1354l28.74-29.84c5-5.13,8.68-10.15,8.68-15.16,0-5.38-3.42-9-9.17-9-6,0-10.27,3.91-12.59,9.29l-4-2.32-12.54-7.34a31.92,31.92,0,0,1,3.54-6.24,28.76,28.76,0,0,1,3.65-4.16,28.72,28.72,0,0,1,3.85-3.08,31.88,31.88,0,0,1,17.82-5.23c15.28,0,29,10,29,27.27,0,10.28-5.5,19.08-13.33,26.91l-14.18,14.31Z" transform="translate(1973.96 -1231.47)"/></svg>