<svg id="Layer_2" data-name="Layer 2" xmlns="http://www.w3.org/2000/svg" width="156.47" height="140.25" viewBox="0 0 156.47 140.25"><defs><style>.cls-1{fill:#fff;}</style></defs><title>anket2</title><path class="cls-1" d="M-2092.47,1245.49a6.8,6.8,0,0,0-6.54-7h-4.21v6.17a7.59,7.59,0,0,1-7.29,7.81h-49a7.6,7.6,0,0,1-7.3-7.81v-6.17h-5.14a6.8,6.8,0,0,0-6.54,7v91a72.35,72.35,0,0,0,9.76,6.65l8.77-8.78a9,9,0,0,1,6.32-2.61,8.92,8.92,0,0,1,2.85.47,52.16,52.16,0,0,0,16.36,2.6,9,9,0,0,1,8.94,9v2.7H-2099a6.8,6.8,0,0,0,6.54-7V1312l-8.41,2.3-7.93-27.85,16.34-5.89Zm-60.76,80a1.94,1.94,0,0,1-1.87,2h-6.54a1.94,1.94,0,0,1-1.87-2v-7a1.94,1.94,0,0,1,1.87-2h6.54a1.94,1.94,0,0,1,1.87,2Zm0-16.67a1.94,1.94,0,0,1-1.87,2h-6.54a1.94,1.94,0,0,1-1.87-2v-7a1.94,1.94,0,0,1,1.87-2h6.54a1.94,1.94,0,0,1,1.87,2Zm0-16.66a1.94,1.94,0,0,1-1.87,2h-6.54a1.94,1.94,0,0,1-1.87-2v-7a1.94,1.94,0,0,1,1.87-2h6.54a1.94,1.94,0,0,1,1.87,2Zm0-16.67a1.94,1.94,0,0,1-1.87,2h-6.54a1.94,1.94,0,0,1-1.87-2v-7a1.94,1.94,0,0,1,1.87-2h6.54a1.94,1.94,0,0,1,1.87,2Zm7-8.5h18.57a1.46,1.46,0,0,1,1.41,1.5,1.46,1.46,0,0,1-1.41,1.5h-18.57a1.45,1.45,0,0,1-1.4-1.5A1.45,1.45,0,0,1-2146.22,1267Zm0,16.67h18.57a1.46,1.46,0,0,1,1.41,1.5,1.46,1.46,0,0,1-1.41,1.5h-18.57a1.45,1.45,0,0,1-1.4-1.5A1.45,1.45,0,0,1-2146.22,1283.66Zm32.26,6a1.45,1.45,0,0,1,1.4,1.5,1.45,1.45,0,0,1-1.4,1.5h-31.84a1.45,1.45,0,0,1-1.4-1.5,1.45,1.45,0,0,1,1.4-1.5Zm-32.26,10.66h18.57a1.46,1.46,0,0,1,1.41,1.5,1.46,1.46,0,0,1-1.41,1.5h-18.57a1.45,1.45,0,0,1-1.4-1.5A1.45,1.45,0,0,1-2146.22,1300.32Zm-1.4,18.17a1.45,1.45,0,0,1,1.4-1.5h18.57a1.46,1.46,0,0,1,1.41,1.5,1.46,1.46,0,0,1-1.41,1.5h-18.57A1.45,1.45,0,0,1-2147.62,1318.49Zm40.66,7.5h-38.84a1.45,1.45,0,0,1-1.4-1.5,1.45,1.45,0,0,1,1.4-1.5H-2107a1.45,1.45,0,0,1,1.4,1.5A1.45,1.45,0,0,1-2107,1326Zm0-19.67a1.45,1.45,0,0,1,1.4,1.5,1.45,1.45,0,0,1-1.4,1.5h-38.84a1.45,1.45,0,0,1-1.4-1.5,1.45,1.45,0,0,1,1.4-1.5Zm0-30.33h-38.84a1.45,1.45,0,0,1-1.4-1.5,1.45,1.45,0,0,1,1.4-1.5H-2107a1.45,1.45,0,0,1,1.4,1.5A1.45,1.45,0,0,1-2107,1276Z" transform="translate(2218.47 -1227.49)"/><path class="cls-1" d="M-2124,1232.49a4.07,4.07,0,0,0,0-.5,4.51,4.51,0,0,0-4.5-4.5h-14a4.47,4.47,0,0,0-3.18,1.32A4.47,4.47,0,0,0-2147,1232a4.07,4.07,0,0,0,0,.5h-19v10a7,7,0,0,0,7,7h47a7,7,0,0,0,7-7v-10Zm3.53,7.5h-30a1,1,0,0,1-1-1,1,1,0,0,1,1-1h30a1,1,0,0,1,1,1A1,1,0,0,1-2120.47,1240Z" transform="translate(2218.47 -1227.49)"/><path class="cls-1" d="M-2200.57,1316.5a74.86,74.86,0,0,0,32.59,32.59l10.88-10.88a4.91,4.91,0,0,1,5-1.19,56.39,56.39,0,0,0,17.65,2.82,5,5,0,0,1,4.94,5V1362a5,5,0,0,1-4.94,5,84.05,84.05,0,0,1-84.06-84.06,5,5,0,0,1,4.95-4.94h17.3a5,5,0,0,1,4.95,4.94,56.16,56.16,0,0,0,2.82,17.65,5,5,0,0,1-1.24,5.05Z" transform="translate(2218.47 -1227.49)"/><polygon class="cls-1" points="156.47 54.64 156.47 140.25 136.9 140.25 136.9 75.31 126 78.3 121.73 79.47 116.97 62.71 126 59.45 139.34 54.64 156.47 54.64"/></svg>