<?xml version="1.0" encoding="utf-8"?>
<!-- Generator: Adobe Illustrator 19.0.0, SVG Export Plug-In . SVG Version: 6.00 Build 0)  -->
<svg version="1.1" id="Layer_1" xmlns="http://www.w3.org/2000/svg" xmlns:xlink="http://www.w3.org/1999/xlink" x="0px" y="0px"
	 width="158.6px" height="151.1px" viewBox="-226 321.9 158.6 151.1" style="enable-background:new -226 321.9 158.6 151.1;"
	 xml:space="preserve">
<style type="text/css">
	.st0{fill:#e54635;}
</style>
<title>24</title>
<path class="st0" d="M-136.6,363c-14.9,0-27,12.1-27,27l0,0c0,1.1,0.9,2,2,2s2-0.9,2-2c0-12.7,10.3-23,23-23c1.1,0,2-0.9,2-2
	S-135.5,363-136.6,363z"/>
<path class="st0" d="M-136.6,344.7c-25,0-45.3,20.3-45.3,45.3c0,1.1,0.9,2,2,2s2-0.9,2-2c0-22.8,18.5-41.3,41.3-41.3
	c1.1,0,2-0.9,2-2C-134.6,345.5-135.5,344.7-136.6,344.7z"/>
<path class="st0" d="M-67.4,390c-0.1-37.5-30.5-67.9-68-68c-37.5,0.1-67.9,30.5-68,68c0,1.1,0.9,2,2,2s2-0.9,2-2
	c0.1-35.3,28.7-63.9,64-64c35.3,0.1,63.9,28.7,64,64c0,33.5-25.8,61.3-59.2,63.8l11.4-11.4c0.8-0.8,0.8-2,0-2.8c0,0,0,0,0,0
	c-0.8-0.8-2-0.8-2.8,0l-15,15c-0.8,0.8-0.8,2,0,2.8c0,0,0,0,0,0l15,15c0.4,0.4,0.9,0.6,1.4,0.6c0.5,0,1-0.2,1.4-0.6
	c0.8-0.8,0.8-2,0-2.8c0,0,0,0,0,0l-11.7-11.7C-95.2,455.5-67.4,425.8-67.4,390z"/>
<path class="st0" d="M-203.4,437.5c6.4-7.7,9.7-14.4,9.7-20c0-4.6-1.4-8.3-4.2-11c-2.8-2.7-6.5-4.1-11.3-4.2
	c-5.1,0-9.2,1.6-12.2,4.8s-4.6,7.4-4.6,12.7h6.5c0-3.6,0.9-6.5,2.7-8.5c1.9-2.1,4.7-3.2,7.6-3.1c2.5-0.1,4.9,1,6.5,2.8
	c1.7,2.1,2.5,4.6,2.4,7.3c0,2.2-0.5,4.4-1.5,6.4c-1.5,2.9-3.4,5.5-5.5,8l-17.8,21.8v5.2h33.6V454h-25.8L-203.4,437.5z"/>
<path class="st0" d="M-156.9,403.2h-7l-23,39.3v4.3h23.4v13.2h6.6v-13.2h7.1v-5.9h-7.1L-156.9,403.2z M-163.5,440.8h-16l15.2-26.3
	l0.8-1.5L-163.5,440.8z"/>
<path class="st0" d="M-125.4,390c0-5.6-4.6-10.2-10.2-10.2c-5.6,0-10.2,4.6-10.2,10.2c0,5.6,4.6,10.2,10.2,10.2
	C-130,400.2-125.4,395.6-125.4,390z M-141.8,390c0-3.4,2.8-6.2,6.2-6.2c3.4,0,6.2,2.8,6.2,6.2c0,3.4-2.8,6.2-6.2,6.2
	C-139,396.2-141.8,393.4-141.8,390L-141.8,390z"/>
</svg>
